<?xml version="1.0" standalone="no"?>
<!DOCTYPE svg PUBLIC "-//W3C//DTD SVG 20010904//EN"
 "http://www.w3.org/TR/2001/REC-SVG-20010904/DTD/svg10.dtd">
<svg version="1.0" xmlns="http://www.w3.org/2000/svg"
 width="120.000000pt" height="120.000000pt" viewBox="0 0 120.000000 120.000000"
 preserveAspectRatio="xMidYMid meet">
<metadata>
Created by potrace 1.11, written by Peter Selinger 2001-2013
</metadata>
<g transform="translate(0.000000,120.000000) scale(0.100000,-0.100000)"
fill="#000000" stroke="none">
<path d="M253 1133 c-10 -3 -13 -64 -13 -253 l0 -249 -27 5 c-91 17 -179 -64
-143 -131 17 -32 56 -47 116 -44 40 2 55 9 82 35 l32 32 0 201 c0 111 2 201 5
201 22 0 75 -39 99 -72 37 -52 40 -120 8 -190 -15 -35 -17 -48 -8 -48 16 0 67
110 73 158 10 68 -5 102 -72 167 -66 65 -105 124 -105 161 0 17 -22 39 -33 33
-1 0 -8 -3 -14 -6z"/>
<path d="M913 1133 c-10 -3 -13 -63 -13 -251 l0 -247 -53 0 c-61 0 -111 -32
-122 -77 -15 -62 27 -98 114 -98 42 0 56 5 83 29 l33 29 3 206 c2 113 6 206 9
206 3 0 23 -10 44 -22 80 -45 104 -144 59 -245 -13 -31 -15 -43 -7 -43 15 0
66 107 74 155 11 69 -4 102 -82 181 -68 69 -95 114 -95 160 0 9 -26 27 -33 23
-1 0 -8 -3 -14 -6z"/>
<path d="M487 734 c-4 -4 -7 -117 -7 -251 l0 -243 -45 0 c-152 0 -187 -164
-38 -177 57 -5 111 19 130 57 9 17 13 84 13 218 0 136 3 192 11 192 24 0 79
-42 100 -77 28 -44 29 -113 5 -178 -24 -61 -14 -68 17 -13 70 120 63 200 -23
282 -68 65 -96 104 -107 151 -6 29 -14 41 -29 43 -11 2 -23 0 -27 -4z"/>
</g>
</svg>
